  <svg width="16" height="16" viewBox="0 0 16 16" fill="none" xmlns="http://www.w3.org/2000/svg">
    <path fill="white" d="M7.999 0.067C3.578 0.067 0 3.645 0 8.066c0 3.562 2.308 6.582 5.509 7.648 0.403 0.074 0.55-0.175 0.55-0.389 0-0.192-0.007-0.698-0.011-1.369-2.245 0.486-2.715-1.074-2.715-1.074-0.366-0.929-0.892-1.176-0.892-1.176-0.73-0.499 0.055-0.489 0.055-0.489 0.807 0.057 1.232 0.83 1.232 0.83 0.717 1.226 1.881 0.872 2.34 0.667 0.072-0.518 0.28-0.872 0.509-1.074-1.782-0.203-3.648-0.891-3.648-3.962 0-0.874 0.313-1.591 0.829-2.15-0.084-0.202-0.359-1.018 0.078-2.121 0 0 0.672-0.215 2.202 0.822 0.639-0.178 1.322-0.267 2.001-0.27 0.679 0.003 1.363 0.092 2.001 0.27 1.53-1.037 2.201-0.822 2.201-0.822 0.439 1.103 0.164 1.919 0.08 2.121 0.518 0.559 0.828 1.276 0.828 2.15 0 3.078-1.868 3.756-3.652 3.954 0.287 0.248 0.542 0.738 0.542 1.486 0 1.073-0.01 1.935-0.01 2.199 0 0.217 0.146 0.466 0.556 0.388C13.693 14.646 16 11.626 16 8.066 16 3.645 12.422 0.067 7.999 0.067z" />
  </svg>