<?xml version="1.0" encoding="UTF-8"?> <svg xmlns="http://www.w3.org/2000/svg" width="380" height="160" viewBox="0 0 380 160" fill="none"><rect width="380" height="160" fill="white"></rect><path d="M183.762 66.1644C179.919 63.9342 175.15 63.9342 171.308 66.1644H171.273C168.769 67.6054 167.225 70.3159 167.225 73.1979V78.5846C167.225 81.4666 168.769 84.1771 171.273 85.6181L171.308 85.6524C173.229 86.7504 175.356 87.2993 177.518 87.2993C179.679 87.2993 181.806 86.7504 183.728 85.6524L183.762 85.6181C186.267 84.1771 187.811 81.4666 187.811 78.5846V73.1979C187.811 70.2816 186.267 67.6054 183.762 66.1644ZM182.733 78.5503C182.733 79.6139 182.15 80.6432 181.223 81.1921L181.189 81.2265C178.924 82.5302 176.111 82.5302 173.881 81.2265L173.847 81.1921C172.92 80.6432 172.337 79.6482 172.337 78.5503V73.1979C172.337 72.1343 172.92 71.105 173.847 70.556H173.881C175.013 69.9041 176.283 69.561 177.552 69.561C178.821 69.561 180.091 69.9041 181.223 70.556L181.257 70.5903C182.184 71.1393 182.767 72.1343 182.767 73.2322V78.5503H182.733Z" fill="black"></path><path d="M229.36 66.1643L229.326 66.13C225.483 63.9341 220.748 63.9341 216.906 66.13H216.871C214.367 67.571 212.823 70.2815 212.823 73.1635V78.5502C212.823 81.4322 214.367 84.1427 216.871 85.5837L216.906 85.6181C218.827 86.716 220.954 87.2649 223.116 87.2649C225.277 87.2649 227.404 86.716 229.326 85.6181H229.36C231.076 84.6231 232.379 83.0448 232.997 81.1577L228.159 79.5452C227.919 80.2314 227.439 80.849 226.787 81.2264H226.753C224.488 82.5301 221.675 82.5301 219.445 81.2264L219.41 81.1921C218.484 80.6431 217.901 79.6481 217.901 78.5502V78.1385H233.409V73.1978C233.409 70.2815 231.83 67.6053 229.36 66.1643ZM217.901 73.0606C217.935 72.0313 218.518 71.1049 219.41 70.556H219.445C221.709 69.2522 224.522 69.2522 226.753 70.556L226.787 70.5903C227.679 71.1049 228.262 72.0656 228.297 73.0949H217.901V73.0606Z" fill="black"></path><path d="M296.951 66.1642C293.108 63.9341 288.339 63.9341 284.496 66.1299L284.462 66.1642C281.957 67.6053 280.413 70.3158 280.413 73.1978V78.5845C280.413 81.4665 281.957 84.177 284.462 85.618L284.496 85.6523C286.418 86.7503 288.545 87.2992 290.706 87.2992C292.868 87.2992 294.995 86.7503 296.917 85.6523L296.951 85.618C299.455 84.177 300.999 81.4665 300.999 78.5845V73.1978C301.034 70.2815 299.455 67.6053 296.951 66.1642ZM295.956 78.5502C295.956 79.6138 295.373 80.6431 294.446 81.192L294.412 81.2263C292.147 82.5301 289.334 82.5301 287.104 81.2263L287.07 81.192C286.143 80.6431 285.56 79.6481 285.56 78.5502V73.1978C285.56 72.1342 286.143 71.1049 287.07 70.5559L287.104 70.5216C288.236 69.8697 289.506 69.5266 290.775 69.5266C292.045 69.5266 293.314 69.8697 294.446 70.5216L294.481 70.5559C295.407 71.1049 295.99 72.0999 295.99 73.1978V78.5502H295.956Z" fill="black"></path><path d="M159.814 56.5918L159.471 56.3859C155.491 54.0871 150.516 54.0871 146.536 56.3859L146.193 56.5918C143.516 58.1357 141.87 61.0178 141.87 64.0714V64.3458V70.1442V86.7503H146.947V78.0698C148.834 79.0648 150.927 79.5795 153.02 79.5795C155.25 79.5795 157.481 78.9962 159.505 77.864L159.848 77.6581C162.524 76.1142 164.171 73.2321 164.171 70.1785V64.1057C164.137 61.0178 162.49 58.1357 159.814 56.5918ZM159.059 70.1442C159.059 71.4137 158.373 72.5802 157.275 73.2321L156.932 73.438C154.496 74.8447 151.511 74.8447 149.075 73.438L148.732 73.2321C147.634 72.5802 146.947 71.4137 146.947 70.1442V64.3801V64.1057C146.947 62.8362 147.634 61.6697 148.732 61.0178L149.075 60.8119C150.275 60.1257 151.648 59.7483 152.986 59.7483C154.358 59.7483 155.696 60.0914 156.897 60.8119L157.24 61.0178C158.338 61.6697 159.025 62.8362 159.025 64.1057V70.1442H159.059Z" fill="black"></path><path d="M267.547 64.8604C264.356 66.6789 262.401 70.1099 262.401 73.781V86.6816H267.479V73.781C267.479 71.9283 268.474 70.2128 270.086 69.2864C271.699 68.3601 273.689 68.3601 275.301 69.2864L276.742 70.1099L279.281 65.7182L277.84 64.8947C274.684 63.042 270.738 63.042 267.547 64.8604Z" fill="black"></path><path d="M197.177 80.7118V54.4303H192.099V80.7118C192.099 84.0741 194.844 86.8189 198.207 86.8189H199.545V81.7411H198.207C197.623 81.7068 197.177 81.2607 197.177 80.7118Z" fill="black"></path><path d="M208.808 63.8655H203.73V86.9219H208.808V63.8655Z" fill="black"></path><path d="M252.862 65.6497C249.226 63.9685 244.937 64.1057 241.437 66.13H241.403C238.898 67.571 237.354 70.2815 237.354 73.1636V78.5502C237.354 81.4323 238.898 84.1428 241.403 85.5838L241.437 85.6181C243.359 86.716 245.486 87.265 247.647 87.265C249.809 87.265 251.936 86.716 253.857 85.6181H253.892C256.396 84.1771 257.94 81.4666 257.94 78.5845V73.1979C257.94 72.992 257.906 72.7861 257.906 72.6146H257.94V54.6018H252.862V65.6497ZM252.862 78.5502C252.862 79.6138 252.279 80.6431 251.353 81.1921H251.319C249.054 82.4959 246.241 82.4959 244.011 81.1921L243.976 81.1578C243.05 80.6088 242.467 79.6138 242.467 78.5159V73.1979C242.467 72.1343 243.05 71.105 243.976 70.556H244.011C245.143 69.9041 246.412 69.561 247.682 69.561C248.951 69.561 250.221 69.8698 251.319 70.5217L251.353 70.556C252.279 71.105 252.862 72.0999 252.862 73.1979V78.5502Z" fill="black"></path><path d="M206.407 54.4303C205.48 54.4303 204.623 54.9106 204.142 55.7341C203.662 56.5232 203.662 57.5182 204.142 58.3416C204.623 59.1308 205.446 59.6454 206.407 59.6454C207.333 59.6454 208.191 59.1651 208.671 58.3416C209.152 57.5525 209.152 56.5575 208.671 55.7341C208.191 54.9106 207.333 54.4303 206.407 54.4303Z" fill="black"></path><path d="M187.776 102.258C187.776 98.9646 188.806 96.0483 193.369 96.0483C197.383 96.0483 198.859 98.2441 198.859 100.749H196.114C195.942 99.2734 195.29 98.2784 193.369 98.2784C190.899 98.2784 190.487 100.028 190.487 102.258C190.487 104.489 190.933 106.238 193.369 106.238C195.29 106.238 195.908 105.243 196.114 103.734H198.859C198.859 106.376 197.417 108.469 193.369 108.469C188.737 108.469 187.776 105.552 187.776 102.258Z" fill="#EE2252"></path><path d="M200.917 103.459C200.917 100.92 201.981 98.4844 205.72 98.4844C209.426 98.4844 210.524 100.886 210.524 103.459C210.524 106.067 209.426 108.469 205.686 108.469C201.946 108.469 200.917 106.033 200.917 103.459ZM208.019 103.459C208.019 101.915 207.573 100.68 205.755 100.68C203.971 100.68 203.49 101.881 203.49 103.459C203.49 105.072 203.971 106.239 205.72 106.239C207.47 106.239 208.019 105.072 208.019 103.459Z" fill="#EE2252"></path><path d="M212.891 94.9503H215.465V108.297H212.891V94.9503Z" fill="#EE2252"></path><path d="M217.798 103.459C217.798 101.058 218.655 98.4845 222.567 98.4845C226.238 98.4845 227.267 101.435 226.993 104.489H220.439C220.577 105.861 221.4 106.444 222.532 106.444C223.699 106.444 224.111 105.93 224.282 105.381H227.027C226.855 106.993 225.758 108.469 222.635 108.469C218.655 108.469 217.798 105.964 217.798 103.459ZM218.552 96.0484L225.929 94.7104V96.5631L218.552 97.9012V96.0484ZM224.317 102.499C224.317 101.435 223.733 100.509 222.361 100.509C221.057 100.509 220.508 101.401 220.439 102.499H224.317Z" fill="#EE2252"></path><path d="M228.708 108.983H231.453C231.556 109.807 231.693 110.287 233.717 110.287C235.502 110.287 235.81 109.807 235.81 109.395C235.81 109.086 235.33 108.88 233.271 108.537C231.11 108.16 228.845 108.023 228.845 106.204C228.845 105.243 229.806 104.729 230.938 104.557C229.6 104.111 229.051 102.945 229.051 102.053C229.051 100.303 229.909 98.6902 233.992 98.6902H238.281V99.8225L236.702 100.406C237.32 100.646 237.903 101.469 237.903 102.396C237.903 104.18 236.977 105.621 233.443 105.621C231.625 105.621 231.487 105.792 231.487 106.033C231.487 106.307 231.659 106.341 234.335 106.684C236.222 106.959 238.521 107.199 238.521 109.258C238.521 110.733 237.526 112.38 233.683 112.38C229.703 112.346 228.708 111.11 228.708 108.983ZM235.159 102.121C235.159 101.332 234.884 100.749 233.409 100.749C232.002 100.749 231.659 101.332 231.659 102.121C231.659 102.979 231.968 103.597 233.409 103.597C234.85 103.597 235.159 103.013 235.159 102.121Z" fill="#EE2252"></path><path d="M239.996 95.7396C239.996 94.676 240.682 94.4015 241.643 94.4015C242.604 94.4015 243.256 94.676 243.256 95.7396C243.256 96.8032 242.604 97.0777 241.643 97.0777C240.648 97.0777 239.996 96.8032 239.996 95.7396ZM240.339 98.6216H242.947V108.297H240.339V98.6216Z" fill="#EE2252"></path><path d="M245.177 103.459C245.177 100.92 246.241 98.4844 249.98 98.4844C253.686 98.4844 254.784 100.886 254.784 103.459C254.784 106.067 253.686 108.469 249.946 108.469C246.206 108.469 245.177 106.033 245.177 103.459ZM252.245 103.459C252.245 101.915 251.799 100.68 249.98 100.68C248.196 100.68 247.716 101.881 247.716 103.459C247.716 105.072 248.196 106.239 249.946 106.239C251.73 106.239 252.245 105.072 252.245 103.459Z" fill="#EE2252"></path><path d="M100.114 72.3057L123.788 58.0327L104.677 46.9849C103.168 46.0928 101.281 46.0928 99.7368 46.9849L80.9006 57.9984C79.6998 58.7189 79.6998 60.4688 80.9006 61.155L100.114 72.3057Z" fill="#1FB4C3"></path><path d="M82.7533 76.0455L100.492 86.3042C101.624 86.9561 102.31 88.1569 102.31 89.4607V112.311C102.31 113.718 100.8 114.61 99.5653 113.889L81.827 103.665C80.6947 103.013 80.0085 101.812 80.0085 100.509V77.6238C80.0085 76.2171 81.5182 75.3593 82.7533 76.0455Z" fill="#FAA41F"></path><path d="M123.788 58.0328L100.114 72.3058C101.487 73.0949 102.344 74.5703 102.344 76.1485V101.023L123.822 88.6374C125.332 87.7453 126.293 86.1327 126.293 84.3486V62.2873C126.258 60.5375 125.332 58.8906 123.788 58.0328Z" fill="#EE2252"></path></svg> 